<svg width="10" height="11" viewBox="0 0 10 11" fill="none" xmlns="http://www.w3.org/2000/svg">
<path d="M0.362305 7.02051C0.257487 6.91569 0.170898 6.82113 0.102539 6.73682C0.0341797 6.65251 0 6.57845 0 6.51465C0 6.44629 0.0307617 6.3859 0.0922852 6.3335C0.153809 6.28109 0.227865 6.23779 0.314453 6.20361C0.401042 6.16943 0.493327 6.14437 0.591309 6.12842C0.68929 6.11247 0.772461 6.10449 0.84082 6.10449C0.913737 6.10449 0.974121 6.12158 1.02197 6.15576C1.06982 6.18994 1.12565 6.23893 1.18945 6.30273C1.61784 6.73112 2.00635 7.19141 2.35498 7.68359C2.70361 8.17578 3.02604 8.66341 3.32227 9.14648C3.89193 7.56966 4.55501 6.04069 5.31152 4.55957C6.06803 3.07845 6.92025 1.69076 7.86816 0.396484C7.95931 0.26888 8.10173 0.170898 8.29541 0.102539C8.4891 0.0341797 8.70671 0 8.94824 0C9.02572 0 9.08724 0.0148112 9.13281 0.0444336C9.17839 0.074056 9.20117 0.116211 9.20117 0.170898C9.20117 0.225586 9.19434 0.272298 9.18066 0.311035C9.16699 0.349772 9.13509 0.401042 9.08496 0.464844C8.5791 1.13477 8.08805 1.83659 7.61182 2.57031C7.13558 3.30404 6.68099 4.07764 6.24805 4.89111C5.8151 5.70459 5.40495 6.55794 5.01758 7.45117C4.63021 8.3444 4.27474 9.2832 3.95117 10.2676C3.94206 10.2949 3.91699 10.3188 3.87598 10.3394C3.83496 10.3599 3.78483 10.377 3.72559 10.3906C3.66634 10.4043 3.60026 10.4146 3.52734 10.4214C3.45443 10.4282 3.38151 10.4316 3.30859 10.4316C3.20378 10.4316 3.10807 10.4214 3.02148 10.4009C2.9349 10.3804 2.87109 10.3359 2.83008 10.2676C2.61133 9.89388 2.40853 9.56462 2.22168 9.27979C2.03483 8.99495 1.8457 8.72949 1.6543 8.4834C1.46289 8.2373 1.26351 7.99805 1.05615 7.76562C0.848796 7.5332 0.617513 7.28483 0.362305 7.02051Z" fill="white"/>
</svg>
