<svg width="35" height="40" viewBox="0 0 35 40" fill="none" xmlns="http://www.w3.org/2000/svg">
<path d="M15.5021 0.390811C16.6457 -0.130323 17.9481 -0.130218 19.0918 0.390811L32.079 6.29769C33.7145 7.03611 34.7134 8.68595 34.6267 10.4953C34.0042 22.6996 27.1275 35.7297 19.2954 39.5518C18.6873 39.8414 18.0354 40 17.3839 40V39.9859C16.6601 39.9858 15.9358 39.7978 15.2844 39.4359C8.65383 35.6716 0.923108 23.5679 0.011048 10.5674C-0.11896 8.74348 0.90885 7.02074 2.54459 6.268L15.5021 0.390811ZM17.8759 3.02473C17.4996 2.85124 17.0649 2.85108 16.6742 3.02473L3.74632 8.90334C3.19627 9.14946 2.849 9.74276 2.89238 10.3652C3.7176 22.034 10.6957 33.5143 16.7039 36.9165C17.0947 37.1481 17.6017 37.1489 18.0215 36.9462C24.8837 33.6018 31.1524 21.4261 31.7171 10.3511C31.746 9.74316 31.413 9.17782 30.8631 8.93161L17.8759 3.02473ZM11.5067 25.7686H11.4926C11.4949 25.7686 11.4973 25.7672 11.4996 25.7672C11.5019 25.7672 11.5044 25.7686 11.5067 25.7686ZM23.0886 25.7686H23.0745C23.0768 25.7686 23.0792 25.7672 23.0815 25.7672C23.0838 25.7672 23.0863 25.7686 23.0886 25.7686ZM22.0608 11.7267C22.6254 11.1621 23.5377 11.1621 24.1023 11.7267C24.6662 12.2912 24.6661 13.2023 24.1023 13.7668L19.3307 18.537L24.1023 23.3086C24.6662 23.8731 24.6661 24.7842 24.1023 25.3487C23.8147 25.6363 23.4552 25.7655 23.0815 25.7672C22.7076 25.7655 22.3486 25.6221 22.0608 25.3487L17.2906 20.5785L12.5204 25.3487C12.2328 25.6363 11.8733 25.7655 11.4996 25.7672C11.1257 25.7655 10.7667 25.6221 10.4789 25.3487C9.91446 24.7841 9.9144 23.8732 10.4789 23.3086L15.249 18.537L10.4789 13.7668C9.91446 13.2022 9.9144 12.2913 10.4789 11.7267C11.0435 11.1621 11.9558 11.1621 12.5204 11.7267L17.2906 16.4969L22.0608 11.7267Z" fill="black"/>
</svg>
