<svg width="8" height="11" viewBox="0 0 8 11" fill="none" xmlns="http://www.w3.org/2000/svg">
<path d="M1.77512 0.591797L1.85715 0.773438C2.11105 1.32031 2.36398 1.84473 2.61594 2.34668C2.86789 2.84863 3.12668 3.34766 3.3923 3.84375C3.8298 3.21094 4.27902 2.5918 4.73996 1.98633C5.2009 1.38086 5.67941 0.787109 6.17551 0.205078C6.2302 0.146484 6.27902 0.101562 6.32199 0.0703125C6.36496 0.0390625 6.40793 0.015625 6.4509 0L6.46262 0.134766L6.6677 0L6.57395 0.228516L6.87277 0.0878906L6.80246 0.269531L6.99582 0.240234L6.81418 0.480469L7.05441 0.375C7.03488 0.417969 7.01633 0.455078 6.99875 0.486328C6.98117 0.517578 6.95871 0.548828 6.93137 0.580078C6.38449 1.22461 5.85715 1.88574 5.34934 2.56348C4.84152 3.24121 4.34543 3.95117 3.86105 4.69336C4.16574 5.23633 4.48898 5.79297 4.83078 6.36328C5.17258 6.93359 5.54074 7.53711 5.93527 8.17383C5.96262 8.2168 5.98801 8.2627 6.01145 8.31152C6.03488 8.36035 6.06223 8.41797 6.09348 8.48438L5.93527 8.47266L5.97043 8.67773L5.71848 8.52539L5.81809 8.82422L5.60129 8.72461L5.58957 8.88281L5.38449 8.63086L5.41965 8.83594L5.29074 8.68945V8.74805C4.90012 8.16992 4.54367 7.62207 4.22141 7.10449C3.89914 6.58691 3.59543 6.07617 3.31027 5.57227C2.88449 6.25195 2.47531 6.95508 2.08273 7.68164C1.69016 8.4082 1.30637 9.16406 0.931367 9.94922L0.837617 10.1191L0.755586 10.0254L0.609102 10.2129V9.92578L0.392305 10.2129V9.98438L0.187227 10.1309L0.286836 9.77344L0.0583203 9.96094L0.0934766 9.74414L-0.000273437 9.80859C0.0114453 9.76562 0.0212109 9.72949 0.0290234 9.7002C0.0368359 9.6709 0.0505078 9.63867 0.0700391 9.60352C0.456758 8.78711 0.880586 7.96973 1.34152 7.15137C1.80246 6.33301 2.29855 5.51758 2.8298 4.70508C2.7009 4.4707 2.56027 4.20703 2.40793 3.91406C2.25559 3.62109 2.10129 3.31543 1.94504 2.99707C1.78879 2.67871 1.63547 2.35938 1.48508 2.03906C1.33469 1.71875 1.19895 1.41602 1.07785 1.13086L0.966523 0.878906L1.13645 0.996094L1.06613 0.697266L1.21848 0.796875L1.18332 0.568359L1.42355 0.773438L1.3298 0.492188L1.48801 0.603516V0.480469L1.62863 0.662109L1.6052 0.503906L1.77512 0.685547V0.591797Z" fill="#B91C1C"/>
</svg>
